<svg xmlns="http://www.w3.org/2000/svg" xmlns:xlink="http://www.w3.org/1999/xlink" width="500" zoomAndPan="magnify" viewBox="0 0 375 374.999991" height="500" preserveAspectRatio="xMidYMid meet" version="1.0"><defs><clipPath id="3754ca8076"><path d="M 152 89 L 372 89 L 372 309 L 152 309 Z M 152 89 " clip-rule="nonzero"/></clipPath><clipPath id="9a7bca5fdc"><path d="M 393.121094 115.871094 L 321.613281 436.492188 L 3.917969 365.640625 L 75.425781 45.015625 Z M 393.121094 115.871094 " clip-rule="nonzero"/></clipPath><clipPath id="4f539f4400"><path d="M 393.121094 115.871094 L 321.613281 436.492188 L 3.917969 365.640625 L 75.425781 45.015625 Z M 393.121094 115.871094 " clip-rule="nonzero"/></clipPath><clipPath id="e56b80446c"><path d="M 126 241 L 169 241 L 169 296 L 126 296 Z M 126 241 " clip-rule="nonzero"/></clipPath><clipPath id="d444032f66"><path d="M 393.121094 115.871094 L 321.613281 436.492188 L 3.917969 365.640625 L 75.425781 45.015625 Z M 393.121094 115.871094 " clip-rule="nonzero"/></clipPath><clipPath id="71fec15d0d"><path d="M 393.121094 115.871094 L 321.613281 436.492188 L 3.917969 365.640625 L 75.425781 45.015625 Z M 393.121094 115.871094 " clip-rule="nonzero"/></clipPath><clipPath id="2a45e68058"><path d="M 7 277 L 133 277 L 133 369 L 7 369 Z M 7 277 " clip-rule="nonzero"/></clipPath><clipPath id="8861fc2bfe"><path d="M 393.121094 115.871094 L 321.613281 436.492188 L 3.917969 365.640625 L 75.425781 45.015625 Z M 393.121094 115.871094 " clip-rule="nonzero"/></clipPath><clipPath id="6b63f3bd06"><path d="M 393.121094 115.871094 L 321.613281 436.492188 L 3.917969 365.640625 L 75.425781 45.015625 Z M 393.121094 115.871094 " clip-rule="nonzero"/></clipPath><clipPath id="8d49048079"><path d="M 185 120 L 315 120 L 315 213 L 185 213 Z M 185 120 " clip-rule="nonzero"/></clipPath><clipPath id="37d2de6064"><path d="M 393.121094 115.871094 L 321.613281 436.492188 L 3.917969 365.640625 L 75.425781 45.015625 Z M 393.121094 115.871094 " clip-rule="nonzero"/></clipPath><clipPath id="8578dcb55b"><path d="M 393.121094 115.871094 L 321.613281 436.492188 L 3.917969 365.640625 L 75.425781 45.015625 Z M 393.121094 115.871094 " clip-rule="nonzero"/></clipPath><clipPath id="11eeafc62b"><path d="M 220.832031 186 L 278 186 L 278 262.613281 L 220.832031 262.613281 Z M 220.832031 186 " clip-rule="nonzero"/></clipPath><clipPath id="0f72a96428"><path d="M 222 150.113281 L 273 150.113281 L 273 194 L 222 194 Z M 222 150.113281 " clip-rule="nonzero"/></clipPath><clipPath id="c369298095"><path d="M 258 169 L 326.582031 169 L 326.582031 240 L 258 240 Z M 258 169 " clip-rule="nonzero"/></clipPath></defs><g clip-path="url(#3754ca8076)"><g clip-path="url(#9a7bca5fdc)"><g clip-path="url(#4f539f4400)"><path fill="#ff3131" d="M 155.453125 175.199219 C 168.601562 116.246094 227.253906 78.980469 286.207031 92.128906 C 345.160156 105.273438 382.417969 163.925781 369.269531 222.882812 C 356.117188 281.839844 297.46875 319.101562 238.515625 305.953125 C 179.5625 292.804688 142.308594 234.148438 155.453125 175.199219 Z M 351.683594 218.960938 C 352.011719 217.5 352.300781 216.03125 352.554688 214.554688 C 352.808594 213.078125 353.027344 211.597656 353.207031 210.109375 C 353.386719 208.625 353.53125 207.132812 353.640625 205.640625 C 353.75 204.144531 353.820312 202.648438 353.855469 201.152344 C 353.890625 199.65625 353.886719 198.15625 353.847656 196.660156 C 353.808594 195.164062 353.734375 193.667969 353.621094 192.171875 C 353.507812 190.679688 353.359375 189.191406 353.175781 187.703125 C 352.988281 186.21875 352.765625 184.734375 352.507812 183.261719 C 352.25 181.785156 351.957031 180.316406 351.625 178.855469 C 351.296875 177.394531 350.929688 175.941406 350.527344 174.5 C 350.128906 173.058594 349.691406 171.625 349.21875 170.203125 C 348.746094 168.78125 348.242188 167.371094 347.699219 165.976562 C 347.160156 164.578125 346.582031 163.195312 345.972656 161.828125 C 345.367188 160.460938 344.722656 159.105469 344.046875 157.769531 C 343.371094 156.433594 342.664062 155.113281 341.925781 153.8125 C 341.183594 152.507812 340.414062 151.226562 339.609375 149.960938 C 338.808594 148.699219 337.972656 147.453125 337.109375 146.230469 C 336.246094 145.007812 335.351562 143.804688 334.429688 142.625 C 333.503906 141.445312 332.554688 140.289062 331.574219 139.15625 C 330.59375 138.023438 329.585938 136.917969 328.550781 135.832031 C 327.515625 134.75 326.457031 133.695312 325.371094 132.664062 C 324.285156 131.632812 323.175781 130.628906 322.039062 129.648438 C 320.902344 128.671875 319.742188 127.726562 318.5625 126.804688 C 317.378906 125.886719 316.175781 124.996094 314.949219 124.136719 C 313.722656 123.273438 312.476562 122.445312 311.210938 121.644531 C 309.945312 120.84375 308.660156 120.078125 307.355469 119.339844 C 306.050781 118.605469 304.730469 117.902344 303.390625 117.230469 C 302.050781 116.558594 300.699219 115.917969 299.328125 115.3125 C 297.957031 114.710938 296.574219 114.136719 295.175781 113.601562 C 293.777344 113.066406 292.367188 112.5625 290.945312 112.09375 C 289.519531 111.625 288.085938 111.195312 286.644531 110.796875 C 285.199219 110.398438 283.746094 110.039062 282.285156 109.710938 C 280.824219 109.386719 279.351562 109.09375 277.878906 108.839844 C 276.402344 108.585938 274.917969 108.371094 273.433594 108.1875 C 271.945312 108.007812 270.457031 107.863281 268.960938 107.753906 C 267.46875 107.648438 265.972656 107.574219 264.476562 107.542969 C 262.976562 107.507812 261.480469 107.507812 259.984375 107.546875 C 258.484375 107.585938 256.992188 107.664062 255.496094 107.773438 C 254.003906 107.886719 252.515625 108.035156 251.027344 108.222656 C 249.542969 108.40625 248.0625 108.628906 246.585938 108.886719 C 245.109375 109.144531 243.640625 109.441406 242.179688 109.769531 C 240.71875 110.101562 239.269531 110.46875 237.824219 110.867188 C 236.382812 111.269531 234.949219 111.707031 233.527344 112.179688 C 232.105469 112.652344 230.699219 113.15625 229.300781 113.699219 C 227.90625 114.238281 226.523438 114.816406 225.152344 115.421875 C 223.785156 116.03125 222.433594 116.675781 221.097656 117.351562 C 219.757812 118.027344 218.441406 118.734375 217.136719 119.472656 C 215.835938 120.214844 214.550781 120.984375 213.289062 121.789062 C 212.023438 122.59375 210.78125 123.425781 209.558594 124.289062 C 208.332031 125.152344 207.132812 126.046875 205.953125 126.972656 C 204.773438 127.894531 203.617188 128.847656 202.484375 129.828125 C 201.351562 130.804688 200.242188 131.8125 199.160156 132.847656 C 198.078125 133.882812 197.019531 134.941406 195.988281 136.027344 C 194.957031 137.117188 193.953125 138.226562 192.976562 139.363281 C 192 140.496094 191.050781 141.65625 190.132812 142.839844 C 189.210938 144.019531 188.324219 145.226562 187.460938 146.449219 C 186.601562 147.675781 185.769531 148.921875 184.972656 150.191406 C 184.171875 151.457031 183.402344 152.742188 182.667969 154.046875 C 181.929688 155.351562 181.226562 156.671875 180.554688 158.011719 C 179.882812 159.351562 179.246094 160.703125 178.640625 162.074219 C 178.035156 163.445312 177.464844 164.828125 176.929688 166.226562 C 176.390625 167.625 175.890625 169.035156 175.421875 170.460938 C 174.953125 171.882812 174.519531 173.316406 174.125 174.761719 C 173.726562 176.203125 173.363281 177.65625 173.039062 179.117188 C 172.710938 180.582031 172.421875 182.050781 172.167969 183.527344 C 171.914062 185.003906 171.695312 186.484375 171.515625 187.972656 C 171.335938 189.457031 171.191406 190.949219 171.082031 192.441406 C 170.972656 193.9375 170.902344 195.429688 170.867188 196.929688 C 170.832031 198.425781 170.835938 199.925781 170.875 201.421875 C 170.914062 202.917969 170.988281 204.414062 171.101562 205.90625 C 171.214844 207.402344 171.363281 208.890625 171.546875 210.378906 C 171.734375 211.863281 171.957031 213.34375 172.214844 214.820312 C 172.472656 216.296875 172.765625 217.765625 173.097656 219.226562 C 173.425781 220.6875 173.792969 222.136719 174.195312 223.582031 C 174.59375 225.023438 175.03125 226.457031 175.503906 227.878906 C 175.976562 229.300781 176.484375 230.707031 177.023438 232.105469 C 177.566406 233.5 178.140625 234.882812 178.75 236.253906 C 179.355469 237.621094 180 238.972656 180.675781 240.3125 C 181.351562 241.648438 182.058594 242.96875 182.796875 244.269531 C 183.539062 245.570312 184.308594 246.855469 185.113281 248.117188 C 185.917969 249.382812 186.75 250.628906 187.613281 251.851562 C 188.476562 253.074219 189.371094 254.273438 190.292969 255.453125 C 191.21875 256.632812 192.167969 257.789062 193.148438 258.921875 C 194.128906 260.054688 195.136719 261.164062 196.171875 262.246094 C 197.207031 263.332031 198.265625 264.386719 199.351562 265.417969 C 200.4375 266.449219 201.550781 267.453125 202.683594 268.429688 C 203.820312 269.40625 204.980469 270.355469 206.160156 271.273438 C 207.34375 272.195312 208.546875 273.085938 209.773438 273.945312 C 211 274.808594 212.246094 275.636719 213.511719 276.4375 C 214.777344 277.234375 216.0625 278.003906 217.367188 278.738281 C 218.671875 279.476562 219.992188 280.179688 221.332031 280.851562 C 222.671875 281.523438 224.023438 282.160156 225.394531 282.765625 C 226.765625 283.371094 228.148438 283.941406 229.546875 284.480469 C 230.945312 285.015625 232.355469 285.519531 233.78125 285.988281 C 235.203125 286.453125 236.636719 286.886719 238.078125 287.285156 C 239.523438 287.683594 240.976562 288.042969 242.4375 288.371094 C 243.898438 288.695312 245.367188 288.980469 246.84375 289.234375 C 248.320312 289.484375 249.800781 289.703125 251.289062 289.882812 C 252.773438 290.058594 254.265625 290.203125 255.757812 290.308594 C 257.25 290.417969 258.746094 290.484375 260.242188 290.519531 C 261.738281 290.550781 263.234375 290.546875 264.734375 290.507812 C 266.230469 290.46875 267.722656 290.390625 269.21875 290.277344 C 270.710938 290.164062 272.199219 290.015625 273.683594 289.828125 C 275.171875 289.640625 276.648438 289.417969 278.125 289.160156 C 279.597656 288.898438 281.066406 288.605469 282.527344 288.273438 C 283.988281 287.941406 285.4375 287.574219 286.878906 287.171875 C 288.320312 286.769531 289.753906 286.332031 291.175781 285.863281 C 292.59375 285.390625 294.003906 284.882812 295.398438 284.339844 C 296.796875 283.800781 298.175781 283.222656 299.542969 282.613281 C 300.914062 282.003906 302.265625 281.363281 303.601562 280.6875 C 304.9375 280.011719 306.253906 279.304688 307.558594 278.566406 C 308.859375 277.824219 310.140625 277.054688 311.40625 276.25 C 312.667969 275.445312 313.910156 274.613281 315.132812 273.75 C 316.355469 272.886719 317.558594 271.992188 318.738281 271.070312 C 319.914062 270.148438 321.070312 269.195312 322.203125 268.214844 C 323.335938 267.238281 324.445312 266.230469 325.527344 265.195312 C 326.609375 264.164062 327.667969 263.101562 328.699219 262.015625 C 329.730469 260.929688 330.734375 259.820312 331.710938 258.6875 C 332.6875 257.550781 333.636719 256.394531 334.554688 255.210938 C 335.476562 254.03125 336.363281 252.828125 337.226562 251.601562 C 338.085938 250.378906 338.917969 249.132812 339.71875 247.867188 C 340.515625 246.601562 341.285156 245.316406 342.023438 244.011719 C 342.757812 242.710938 343.464844 241.390625 344.136719 240.050781 C 344.808594 238.714844 345.449219 237.359375 346.054688 235.992188 C 346.660156 234.621094 347.230469 233.238281 347.769531 231.839844 C 348.308594 230.445312 348.8125 229.035156 349.28125 227.613281 C 349.75 226.191406 350.183594 224.757812 350.582031 223.316406 C 350.980469 221.871094 351.34375 220.417969 351.671875 218.957031 Z M 351.683594 218.960938 " fill-opacity="1" fill-rule="nonzero"/></g></g></g><g clip-path="url(#e56b80446c)"><g clip-path="url(#d444032f66)"><g clip-path="url(#71fec15d0d)"><path fill="#ff3131" d="M 126.679688 249.824219 C 126.898438 248.851562 127.25 247.929688 127.738281 247.0625 C 128.230469 246.195312 128.832031 245.417969 129.554688 244.730469 C 130.273438 244.039062 131.078125 243.46875 131.964844 243.019531 C 132.851562 242.570312 133.789062 242.257812 134.769531 242.082031 C 135.75 241.910156 136.734375 241.882812 137.722656 242 C 138.710938 242.117188 139.664062 242.375 140.574219 242.777344 C 141.488281 243.175781 142.320312 243.699219 143.078125 244.347656 C 143.835938 244.992188 144.484375 245.734375 145.023438 246.574219 L 166.378906 279.917969 C 166.785156 280.476562 167.128906 281.066406 167.414062 281.691406 C 167.695312 282.316406 167.914062 282.964844 168.066406 283.636719 C 168.21875 284.304688 168.300781 284.984375 168.316406 285.671875 C 168.328125 286.359375 168.269531 287.039062 168.144531 287.714844 C 168.019531 288.390625 167.824219 289.046875 167.566406 289.683594 C 167.304688 290.320312 166.984375 290.921875 166.601562 291.492188 C 166.21875 292.0625 165.78125 292.589844 165.289062 293.070312 C 164.800781 293.550781 164.265625 293.976562 163.6875 294.347656 C 163.109375 294.71875 162.5 295.03125 161.859375 295.277344 C 161.21875 295.523438 160.558594 295.703125 159.878906 295.816406 C 159.203125 295.929688 158.519531 295.972656 157.832031 295.945312 C 157.144531 295.917969 156.46875 295.824219 155.800781 295.65625 C 155.136719 295.492188 154.492188 295.261719 153.871094 294.964844 C 153.253906 294.667969 152.667969 294.3125 152.121094 293.894531 C 151.574219 293.480469 151.074219 293.011719 150.625 292.496094 C 150.171875 291.976562 149.777344 291.417969 149.441406 290.820312 L 128.082031 257.476562 C 127.347656 256.34375 126.859375 255.117188 126.613281 253.789062 C 126.371094 252.464844 126.394531 251.140625 126.679688 249.824219 Z M 126.679688 249.824219 " fill-opacity="1" fill-rule="nonzero"/></g></g></g><g clip-path="url(#2a45e68058)"><g clip-path="url(#8861fc2bfe)"><g clip-path="url(#6b63f3bd06)"><path fill="#ff3131" d="M 7.996094 347.382812 C 8.5 345.109375 9.425781 343.023438 10.773438 341.125 C 12.121094 339.226562 13.785156 337.664062 15.769531 336.4375 L 106.113281 280.535156 C 106.59375 280.238281 107.089844 279.964844 107.597656 279.714844 C 108.105469 279.464844 108.625 279.242188 109.15625 279.042969 C 109.6875 278.84375 110.226562 278.671875 110.773438 278.527344 C 111.320312 278.382812 111.875 278.261719 112.433594 278.171875 C 112.992188 278.082031 113.554688 278.015625 114.121094 277.980469 C 114.6875 277.945312 115.253906 277.9375 115.820312 277.957031 C 116.386719 277.976562 116.949219 278.023438 117.511719 278.097656 C 118.070312 278.175781 118.628906 278.277344 119.179688 278.40625 C 119.730469 278.535156 120.273438 278.691406 120.8125 278.875 C 121.347656 279.058594 121.871094 279.269531 122.386719 279.503906 C 122.902344 279.738281 123.40625 279.996094 123.898438 280.28125 C 124.386719 280.566406 124.863281 280.875 125.320312 281.203125 C 125.78125 281.535156 126.222656 281.886719 126.648438 282.261719 C 127.074219 282.636719 127.480469 283.03125 127.867188 283.445312 C 128.253906 283.859375 128.617188 284.292969 128.960938 284.742188 C 129.304688 285.191406 129.628906 285.65625 129.925781 286.140625 C 130.222656 286.621094 130.496094 287.117188 130.746094 287.625 C 130.996094 288.132812 131.222656 288.652344 131.417969 289.183594 C 131.617188 289.714844 131.789062 290.253906 131.933594 290.800781 C 132.082031 291.347656 132.199219 291.902344 132.289062 292.460938 C 132.382812 293.019531 132.445312 293.582031 132.480469 294.148438 C 132.515625 294.714844 132.523438 295.28125 132.503906 295.84375 C 132.484375 296.410156 132.4375 296.976562 132.363281 297.539062 C 132.289062 298.097656 132.1875 298.65625 132.054688 299.207031 C 131.925781 299.757812 131.769531 300.300781 131.585938 300.839844 C 131.402344 301.375 131.195312 301.898438 130.960938 302.414062 C 130.726562 302.929688 130.464844 303.433594 130.179688 303.925781 C 129.898438 304.414062 129.589844 304.890625 129.257812 305.347656 C 128.925781 305.808594 128.574219 306.25 128.199219 306.675781 C 127.824219 307.101562 127.429688 307.507812 127.015625 307.894531 C 126.601562 308.28125 126.171875 308.644531 125.71875 308.992188 C 125.269531 309.335938 124.804688 309.65625 124.324219 309.953125 L 33.976562 365.855469 C 33.257812 366.300781 32.511719 366.691406 31.734375 367.027344 C 30.957031 367.363281 30.160156 367.640625 29.339844 367.859375 C 28.523438 368.078125 27.695312 368.234375 26.855469 368.332031 C 26.011719 368.429688 25.167969 368.464844 24.324219 368.4375 C 23.476562 368.410156 22.640625 368.320312 21.804688 368.171875 C 20.972656 368.019531 20.15625 367.808594 19.355469 367.539062 C 18.550781 367.269531 17.773438 366.941406 17.019531 366.558594 C 16.265625 366.171875 15.542969 365.734375 14.855469 365.246094 C 14.164062 364.753906 13.515625 364.21875 12.902344 363.632812 C 12.292969 363.046875 11.730469 362.417969 11.210938 361.75 C 10.691406 361.082031 10.222656 360.378906 9.808594 359.640625 C 9.394531 358.902344 9.035156 358.140625 8.730469 357.347656 C 8.425781 356.558594 8.183594 355.75 8 354.925781 C 7.8125 354.101562 7.691406 353.265625 7.628906 352.421875 C 7.566406 351.578125 7.566406 350.734375 7.628906 349.886719 C 7.6875 349.042969 7.8125 348.210938 7.996094 347.382812 Z M 7.996094 347.382812 " fill-opacity="1" fill-rule="nonzero"/></g></g></g><g clip-path="url(#8d49048079)"><g clip-path="url(#37d2de6064)"><g clip-path="url(#8578dcb55b)"><path fill="#ff3131" d="M 187.101562 182.070312 C 190.171875 168.300781 198.179688 150.976562 217.511719 134.835938 C 234.480469 120.660156 256.472656 117.289062 281.101562 125.070312 C 292.484375 128.714844 303.058594 133.976562 312.832031 140.851562 C 313.113281 141.066406 313.371094 141.304688 313.605469 141.566406 C 313.84375 141.832031 314.050781 142.117188 314.230469 142.421875 C 314.410156 142.726562 314.558594 143.042969 314.675781 143.378906 C 314.792969 143.710938 314.875 144.054688 314.925781 144.402344 C 314.976562 144.753906 314.992188 145.105469 314.972656 145.457031 C 314.953125 145.8125 314.902344 146.160156 314.816406 146.5 C 314.726562 146.84375 314.609375 147.175781 314.457031 147.496094 C 314.304688 147.8125 314.121094 148.117188 313.910156 148.398438 C 313.699219 148.683594 313.460938 148.941406 313.199219 149.179688 C 312.9375 149.417969 312.65625 149.625 312.351562 149.808594 C 312.046875 149.988281 311.730469 150.140625 311.394531 150.257812 C 311.0625 150.378906 310.722656 150.464844 310.371094 150.515625 C 310.023438 150.566406 309.671875 150.585938 309.316406 150.566406 C 308.964844 150.550781 308.617188 150.5 308.273438 150.414062 C 307.929688 150.328125 307.597656 150.210938 307.277344 150.0625 C 306.957031 149.910156 306.65625 149.730469 306.371094 149.519531 C 297.492188 143.339844 287.898438 138.597656 277.597656 135.300781 C 256.476562 128.699219 238.609375 131.335938 224.460938 143.132812 C 189.554688 172.265625 196.832031 205.453125 196.910156 205.789062 C 197 206.136719 197.054688 206.492188 197.074219 206.851562 C 197.089844 207.210938 197.074219 207.566406 197.019531 207.921875 C 196.96875 208.277344 196.878906 208.625 196.757812 208.964844 C 196.636719 209.304688 196.480469 209.625 196.296875 209.933594 C 196.109375 210.242188 195.894531 210.527344 195.652344 210.792969 C 195.40625 211.054688 195.140625 211.292969 194.847656 211.503906 C 194.558594 211.714844 194.246094 211.898438 193.921875 212.046875 C 193.59375 212.195312 193.253906 212.3125 192.90625 212.394531 C 192.554688 212.476562 192.199219 212.519531 191.839844 212.53125 C 191.480469 212.542969 191.125 212.519531 190.769531 212.457031 C 190.414062 212.398438 190.070312 212.304688 189.734375 212.175781 C 189.398438 212.046875 189.078125 211.882812 188.773438 211.691406 C 188.472656 211.5 188.191406 211.277344 187.929688 211.027344 C 187.671875 210.777344 187.4375 210.507812 187.234375 210.210938 C 187.027344 209.914062 186.855469 209.601562 186.714844 209.273438 C 186.570312 208.941406 186.460938 208.601562 186.386719 208.25 C 186.167969 207.410156 183.824219 196.765625 187.101562 182.070312 Z M 187.101562 182.070312 " fill-opacity="1" fill-rule="nonzero"/></g></g></g><g clip-path="url(#11eeafc62b)"><path fill="#ff3131" d="M 274.921875 230.976562 L 253.289062 186.28125 C 247.957031 189.617188 244.203125 194.914062 242.214844 201.167969 L 230.878906 195.335938 C 230.066406 194.914062 229.109375 194.871094 228.261719 195.21875 C 227.425781 195.550781 226.753906 196.257812 226.464844 197.128906 L 220.996094 213.402344 C 220.445312 215.042969 221.335938 216.820312 222.972656 217.371094 C 224.621094 217.921875 226.40625 217.039062 226.957031 215.398438 L 231.257812 202.589844 L 240.835938 207.523438 C 240.445312 210.765625 240.476562 214.152344 240.960938 217.589844 L 234.054688 215.460938 C 232.410156 214.953125 230.660156 215.855469 230.132812 217.492188 L 223.347656 238.453125 C 222.8125 240.101562 223.71875 241.871094 225.367188 242.40625 C 226.171875 242.664062 227 242.582031 227.703125 242.242188 C 228.449219 241.882812 229.058594 241.230469 229.324219 240.386719 L 235.164062 222.367188 L 242.613281 224.671875 C 243.234375 226.609375 243.988281 228.546875 244.910156 230.453125 C 246.003906 232.710938 247.257812 234.820312 248.644531 236.773438 L 240.546875 238.09375 C 239.027344 238.34375 237.914062 239.652344 237.90625 241.191406 L 237.871094 259.140625 C 237.871094 260.875 239.273438 262.28125 241.011719 262.285156 C 241.5 262.285156 241.96875 262.171875 242.382812 261.972656 C 243.433594 261.46875 244.160156 260.394531 244.160156 259.15625 L 244.183594 243.867188 L 253.382812 242.363281 C 258.382812 247.320312 264.34375 250.675781 270.441406 252.042969 C 282.03125 245.195312 275.230469 231.566406 274.921875 230.976562 Z M 274.921875 230.976562 " fill-opacity="1" fill-rule="nonzero"/></g><path fill="#ff3131" d="M 282.484375 240.570312 C 282.445312 244.710938 281.246094 249.046875 277.957031 252.683594 C 281.136719 252.507812 284.257812 251.765625 287.207031 250.339844 C 290.148438 248.921875 292.671875 246.9375 294.789062 244.558594 C 289.898438 244.867188 285.753906 243.121094 282.484375 240.570312 Z M 282.484375 240.570312 " fill-opacity="1" fill-rule="nonzero"/><g clip-path="url(#0f72a96428)"><path fill="#ff3131" d="M 224.863281 173.105469 C 228.960938 172.464844 235.691406 172.246094 239.789062 173.714844 C 236.265625 178.753906 235.414062 185.289062 238.164062 190.964844 C 238.609375 191.890625 239.144531 192.75 239.734375 193.546875 C 242.789062 187.816406 247.371094 183.148438 253.296875 180.289062 C 259.222656 177.425781 265.734375 176.738281 272.125 177.910156 C 271.875 176.949219 271.527344 176.003906 271.082031 175.078125 C 268.210938 169.144531 262.164062 165.695312 255.703125 165.585938 C 257.269531 161.566406 261.375 156.757812 264.292969 154.074219 C 265.144531 153.289062 265.199219 151.964844 264.417969 151.113281 C 263.628906 150.265625 262.304688 150.207031 261.453125 150.996094 C 260.449219 151.914062 252.796875 159.152344 251.183594 166.074219 C 249.796875 166.390625 248.433594 166.84375 247.101562 167.488281 C 245.464844 168.277344 243.996094 169.273438 242.707031 170.421875 C 236.300781 167.210938 225.582031 168.753906 224.210938 168.972656 C 223.066406 169.148438 222.292969 170.21875 222.46875 171.363281 C 222.652344 172.503906 223.71875 173.28125 224.863281 173.105469 Z M 224.863281 173.105469 " fill-opacity="1" fill-rule="nonzero"/></g><g clip-path="url(#c369298095)"><path fill="#ff3131" d="M 318.179688 192.671875 L 297.515625 184.960938 C 295.894531 184.363281 294.101562 185.167969 293.484375 186.769531 L 290.589844 194.207031 C 288.242188 191.675781 285.660156 189.5 282.921875 187.757812 L 285.125 176.585938 L 297.84375 181.175781 C 299.472656 181.765625 301.269531 180.921875 301.863281 179.296875 C 302.453125 177.664062 301.609375 175.863281 299.976562 175.273438 L 283.808594 169.441406 C 282.953125 169.128906 281.996094 169.210938 281.199219 169.660156 C 280.398438 170.113281 279.835938 170.890625 279.65625 171.789062 L 277.105469 184.777344 C 270.804688 182.257812 264.109375 181.84375 258.007812 184.003906 L 279.609375 228.636719 C 279.917969 229.308594 286.382812 243.097656 298.953125 238.277344 C 301.640625 232.726562 302.710938 226.070312 301.980469 219.160156 L 309.480469 212.347656 L 321.492188 221.824219 C 322.46875 222.59375 323.761719 222.695312 324.8125 222.183594 C 325.222656 221.988281 325.601562 221.691406 325.90625 221.300781 C 326.980469 219.945312 326.75 217.972656 325.386719 216.894531 L 311.28125 205.773438 C 310.074219 204.820312 308.351562 204.878906 307.21875 205.914062 L 300.574219 211.953125 C 299.894531 209.578125 298.996094 207.214844 297.871094 204.886719 C 297.042969 203.160156 296.089844 201.546875 295.078125 199.996094 L 298.214844 191.929688 L 315.976562 198.558594 C 316.8125 198.871094 317.699219 198.800781 318.445312 198.441406 C 319.148438 198.101562 319.71875 197.503906 320.015625 196.714844 C 320.628906 195.089844 319.800781 193.28125 318.179688 192.671875 Z M 318.179688 192.671875 " fill-opacity="1" fill-rule="nonzero"/></g></svg>